<svg width="173" height="36" viewBox="0 0 173 36" fill="none" xmlns="http://www.w3.org/2000/svg">
<path d="M126.242 4.19141H108.657C108.138 4.19141 107.793 4.50235 107.793 5.05513V6.43709C107.793 6.95532 108.104 7.30081 108.657 7.30081H115.808V31.0359C115.808 31.5196 116.119 31.8306 116.672 31.8306H118.227C118.71 31.8306 119.021 31.5196 119.021 31.0359V7.26626H126.208C126.691 7.26626 127.002 6.95532 127.002 6.40254V5.02058C127.037 4.50235 126.726 4.19141 126.242 4.19141Z" fill="white"/>
<path d="M16.8599 19.3584C15.9271 18.2874 14.476 17.4927 12.6104 16.94L7.18618 15.3853C6.59885 15.2125 6.01151 15.0052 5.49328 14.7979C5.0096 14.5906 4.59501 14.3488 4.24952 14.0379C3.93858 13.7615 3.66219 13.3814 3.48944 12.9668C3.3167 12.5522 3.21305 11.9995 3.21305 11.3776V10.9975C3.21305 9.78834 3.59309 8.85551 4.31862 8.16453C5.07869 7.47356 6.14971 7.12807 7.53167 7.12807H15.858C16.3762 7.12807 16.7217 6.81713 16.7217 6.33344V4.98603C16.7217 4.50235 16.4107 4.19141 15.858 4.19141H7.08253C6.04606 4.19141 5.07869 4.36415 4.24952 4.67509C3.3858 4.98603 2.62572 5.43517 2.00384 6.0225C1.38196 6.60983 0.863724 7.30081 0.518234 8.12999C0.172745 8.92461 0 9.82288 0 10.8248V11.7576C0 13.416 0.483685 14.7979 1.41651 15.9035C2.34933 16.9745 3.66219 17.7691 5.32054 18.2528L10.6411 19.773C11.3666 19.9803 12.023 20.2221 12.5758 20.4294C13.1286 20.6713 13.5777 20.9476 13.9578 21.2931C14.3378 21.6386 14.6142 22.0187 14.7869 22.5023C14.9942 22.986 15.0979 23.5734 15.0979 24.2643V25.0935C15.0979 26.2682 14.7524 27.1665 14.0269 27.8574C13.3013 28.5484 12.2303 28.8594 10.8484 28.8594H2.00384C1.4856 28.8594 1.14011 29.1703 1.14011 29.654V31.0014C1.14011 31.4851 1.45106 31.796 2.00384 31.796H11.3321C13.4395 31.796 15.1324 31.1741 16.4107 29.9649C17.6545 28.7557 18.3109 27.1319 18.3109 25.1972V23.9189C18.3109 21.9496 17.8273 20.4294 16.8599 19.3584Z" fill="white"/>
<path d="M66.6801 4.19141H65.1254C64.6072 4.19141 64.2617 4.50235 64.2617 5.05513V31.0014C64.2617 31.4851 64.5727 31.796 65.1254 31.796H66.6801C67.1638 31.796 67.4748 31.4851 67.4748 31.0014V5.05513C67.5093 4.50235 67.1984 4.19141 66.6801 4.19141Z" fill="white"/>
<path d="M47.7043 4.19141H46.1496C45.6313 4.19141 45.2859 4.50235 45.2859 5.05513V16.8363C45.2513 16.8363 45.1822 16.8018 45.1477 16.8018H35.2321C35.1976 16.8018 35.163 16.8018 35.1285 16.8018V5.05513C35.1285 4.5369 34.8175 4.19141 34.3338 4.19141H32.7446C32.2263 4.19141 31.8809 4.50235 31.8809 5.05513V31.0014C31.8809 31.4851 32.1918 31.796 32.7446 31.796H34.2993C34.783 31.796 35.0939 31.4851 35.0939 31.0014V19.7039H45.1131C45.1822 19.7039 45.2168 19.6693 45.2513 19.6693V31.0014C45.2513 31.4851 45.5622 31.796 46.115 31.796H47.6697C48.1534 31.796 48.4644 31.4851 48.4644 31.0014V5.05513C48.5335 4.50235 48.2225 4.19141 47.7043 4.19141Z" fill="white"/>
<path d="M95.1864 4.19141H83.9925C83.4743 4.19141 83.267 4.64054 83.267 5.15878L83.2324 31.0014C83.2324 31.4851 83.5434 31.796 84.0961 31.796H85.6508C86.1345 31.796 86.4455 31.4851 86.4455 31.0014V19.7039H94.1153C94.5645 19.7039 94.8409 19.3929 94.8409 18.9093V17.5964C94.8409 17.1127 94.5645 16.8018 94.1153 16.8018H86.4455V7.26626H95.1518C95.6355 7.26626 95.9464 6.95532 95.9464 6.40254V5.02058C95.981 4.50235 95.67 4.19141 95.1864 4.19141Z" fill="white"/>
<path d="M156.849 7.70851L146.899 20.4916C146.865 20.5607 146.83 20.5953 146.83 20.6644V22.1154C146.83 22.2882 146.968 22.4264 147.141 22.4264H156.055C156.227 22.4264 156.366 22.5646 156.366 22.7373V27.9196C156.366 28.0924 156.504 28.2306 156.677 28.2306H158.577C158.749 28.2306 158.888 28.0924 158.888 27.9196V7.88125C158.888 7.70851 158.749 7.57031 158.577 7.57031H157.126C157.022 7.60486 156.918 7.63941 156.849 7.70851ZM150.216 19.6624L155.813 12.5108C155.986 12.269 156.366 12.4072 156.366 12.6836V19.8352C156.366 20.0079 156.227 20.1461 156.055 20.1461H150.458C150.181 20.1807 150.043 19.8697 150.216 19.6624Z" fill="white"/>
<path d="M154.748 0C144.833 0 136.748 8.08445 136.748 18C136.748 27.9155 144.833 36 154.748 36C164.664 36 172.748 27.9155 172.748 18C172.748 8.0499 164.664 0 154.748 0ZM170.191 18C170.191 26.499 163.282 33.4434 154.748 33.4434C146.214 33.4434 139.305 26.499 139.305 18C139.305 9.50096 146.214 2.55662 154.748 2.55662C163.282 2.55662 170.191 9.46641 170.191 18Z" fill="#136EF6"/>
</svg>
