<svg width="42" height="42" viewBox="0 0 42 42" fill="none" xmlns="http://www.w3.org/2000/svg">
<g filter="url(#filter0_d_875_12212)">
<circle cx="21" cy="19" r="14" fill="#136EF6"/>
</g>
<path d="M16.2059 25.3601H25.6171C26.3524 25.3601 26.9038 25.1763 27.2715 24.8086C27.6391 24.4458 27.8229 23.904 27.8229 23.1832V14.8169C27.8229 14.0961 27.6391 13.5519 27.2715 13.1843C26.9038 12.8166 26.3524 12.6328 25.6171 12.6328H16.2059C15.4803 12.6328 14.9312 12.8166 14.5587 13.1843C14.1862 13.5471 14 14.0913 14 14.8169V23.1832C14 23.9089 14.1862 24.4531 14.5587 24.8159C14.9312 25.1787 15.4803 25.3601 16.2059 25.3601ZM16.1478 24.1338C15.8527 24.1338 15.6278 24.0564 15.473 23.9016C15.3182 23.7468 15.2408 23.5122 15.2408 23.1978V16.8051C15.2408 16.4955 15.3182 16.2633 15.473 16.1085C15.6278 15.9537 15.8527 15.8763 16.1478 15.8763H25.6679C25.963 15.8763 26.1903 15.9537 26.35 16.1085C26.5144 16.2633 26.5967 16.4955 26.5967 16.8051V23.1978C26.5967 23.5122 26.5144 23.7468 26.35 23.9016C26.1903 24.0564 25.963 24.1338 25.6679 24.1338H16.1478ZM19.5872 18.2926H19.9863C20.1073 18.2926 20.1895 18.2708 20.233 18.2273C20.2814 18.1838 20.3056 18.1015 20.3056 17.9806V17.5815C20.3056 17.4606 20.2814 17.3783 20.233 17.3348C20.1895 17.2864 20.1073 17.2622 19.9863 17.2622H19.5872C19.4663 17.2622 19.3792 17.2864 19.326 17.3348C19.2776 17.3783 19.2534 17.4606 19.2534 17.5815V17.9806C19.2534 18.1015 19.2776 18.1838 19.326 18.2273C19.3792 18.2708 19.4663 18.2926 19.5872 18.2926ZM21.8439 18.2926H22.2502C22.3712 18.2926 22.4558 18.2708 22.5042 18.2273C22.5526 18.1838 22.5768 18.1015 22.5768 17.9806V17.5815C22.5768 17.4606 22.5526 17.3783 22.5042 17.3348C22.4558 17.2864 22.3712 17.2622 22.2502 17.2622H21.8439C21.723 17.2622 21.6383 17.2864 21.5899 17.3348C21.5464 17.3783 21.5246 17.4606 21.5246 17.5815V17.9806C21.5246 18.1015 21.5464 18.1838 21.5899 18.2273C21.6383 18.2708 21.723 18.2926 21.8439 18.2926ZM24.1078 18.2926H24.5141C24.6351 18.2926 24.7173 18.2708 24.7609 18.2273C24.8092 18.1838 24.8334 18.1015 24.8334 17.9806V17.5815C24.8334 17.4606 24.8092 17.3783 24.7609 17.3348C24.7173 17.2864 24.6351 17.2622 24.5141 17.2622H24.1078C23.982 17.2622 23.895 17.2864 23.8466 17.3348C23.803 17.3783 23.7813 17.4606 23.7813 17.5815V17.9806C23.7813 18.1015 23.803 18.1838 23.8466 18.2273C23.895 18.2708 23.982 18.2926 24.1078 18.2926ZM17.3233 20.5275H17.7224C17.8482 20.5275 17.9328 20.5057 17.9764 20.4622C18.0247 20.4138 18.0489 20.3292 18.0489 20.2082V19.8019C18.0489 19.6809 18.0247 19.5987 17.9764 19.5552C17.9328 19.5116 17.8482 19.4899 17.7224 19.4899H17.3233C17.1975 19.4899 17.1105 19.5116 17.0621 19.5552C17.0186 19.5987 16.9968 19.6809 16.9968 19.8019V20.2082C16.9968 20.3292 17.0186 20.4138 17.0621 20.4622C17.1105 20.5057 17.1975 20.5275 17.3233 20.5275ZM19.5872 20.5275H19.9863C20.1073 20.5275 20.1895 20.5057 20.233 20.4622C20.2814 20.4138 20.3056 20.3292 20.3056 20.2082V19.8019C20.3056 19.6809 20.2814 19.5987 20.233 19.5552C20.1895 19.5116 20.1073 19.4899 19.9863 19.4899H19.5872C19.4663 19.4899 19.3792 19.5116 19.326 19.5552C19.2776 19.5987 19.2534 19.6809 19.2534 19.8019V20.2082C19.2534 20.3292 19.2776 20.4138 19.326 20.4622C19.3792 20.5057 19.4663 20.5275 19.5872 20.5275ZM21.8439 20.5275H22.2502C22.3712 20.5275 22.4558 20.5057 22.5042 20.4622C22.5526 20.4138 22.5768 20.3292 22.5768 20.2082V19.8019C22.5768 19.6809 22.5526 19.5987 22.5042 19.5552C22.4558 19.5116 22.3712 19.4899 22.2502 19.4899H21.8439C21.723 19.4899 21.6383 19.5116 21.5899 19.5552C21.5464 19.5987 21.5246 19.6809 21.5246 19.8019V20.2082C21.5246 20.3292 21.5464 20.4138 21.5899 20.4622C21.6383 20.5057 21.723 20.5275 21.8439 20.5275ZM24.1078 20.5275H24.5141C24.6351 20.5275 24.7173 20.5057 24.7609 20.4622C24.8092 20.4138 24.8334 20.3292 24.8334 20.2082V19.8019C24.8334 19.6809 24.8092 19.5987 24.7609 19.5552C24.7173 19.5116 24.6351 19.4899 24.5141 19.4899H24.1078C23.982 19.4899 23.895 19.5116 23.8466 19.5552C23.803 19.5987 23.7813 19.6809 23.7813 19.8019V20.2082C23.7813 20.3292 23.803 20.4138 23.8466 20.4622C23.895 20.5057 23.982 20.5275 24.1078 20.5275ZM17.3233 22.7479H17.7224C17.8482 22.7479 17.9328 22.7261 17.9764 22.6826C18.0247 22.639 18.0489 22.5568 18.0489 22.4359V22.0368C18.0489 21.911 18.0247 21.8263 17.9764 21.7828C17.9328 21.7393 17.8482 21.7175 17.7224 21.7175H17.3233C17.1975 21.7175 17.1105 21.7393 17.0621 21.7828C17.0186 21.8263 16.9968 21.911 16.9968 22.0368V22.4359C16.9968 22.5568 17.0186 22.639 17.0621 22.6826C17.1105 22.7261 17.1975 22.7479 17.3233 22.7479ZM19.5872 22.7479H19.9863C20.1073 22.7479 20.1895 22.7261 20.233 22.6826C20.2814 22.639 20.3056 22.5568 20.3056 22.4359V22.0368C20.3056 21.911 20.2814 21.8263 20.233 21.7828C20.1895 21.7393 20.1073 21.7175 19.9863 21.7175H19.5872C19.4663 21.7175 19.3792 21.7393 19.326 21.7828C19.2776 21.8263 19.2534 21.911 19.2534 22.0368V22.4359C19.2534 22.5568 19.2776 22.639 19.326 22.6826C19.3792 22.7261 19.4663 22.7479 19.5872 22.7479ZM21.8439 22.7479H22.2502C22.3712 22.7479 22.4558 22.7261 22.5042 22.6826C22.5526 22.639 22.5768 22.5568 22.5768 22.4359V22.0368C22.5768 21.911 22.5526 21.8263 22.5042 21.7828C22.4558 21.7393 22.3712 21.7175 22.2502 21.7175H21.8439C21.723 21.7175 21.6383 21.7393 21.5899 21.7828C21.5464 21.8263 21.5246 21.911 21.5246 22.0368V22.4359C21.5246 22.5568 21.5464 22.639 21.5899 22.6826C21.6383 22.7261 21.723 22.7479 21.8439 22.7479Z" fill="white"/>
<defs>
<filter id="filter0_d_875_12212" x="0" y="0" width="42" height="42" filterUnits="userSpaceOnUse" color-interpolation-filters="sRGB">
<feFlood flood-opacity="0" result="BackgroundImageFix"/>
<feColorMatrix in="SourceAlpha" type="matrix" values="0 0 0 0 0 0 0 0 0 0 0 0 0 0 0 0 0 0 127 0" result="hardAlpha"/>
<feMorphology radius="5" operator="erode" in="SourceAlpha" result="effect1_dropShadow_875_12212"/>
<feOffset dy="2"/>
<feGaussianBlur stdDeviation="6"/>
<feComposite in2="hardAlpha" operator="out"/>
<feColorMatrix type="matrix" values="0 0 0 0 0.225 0 0 0 0 0.225 0 0 0 0 0.225 0 0 0 0.28 0"/>
<feBlend mode="normal" in2="BackgroundImageFix" result="effect1_dropShadow_875_12212"/>
<feBlend mode="normal" in="SourceGraphic" in2="effect1_dropShadow_875_12212" result="shape"/>
</filter>
</defs>
</svg>
