<svg width="42" height="42" viewBox="0 0 42 42" fill="none" xmlns="http://www.w3.org/2000/svg">
<g filter="url(#filter0_d_875_12230)">
<circle cx="21" cy="19" r="14" fill="#136EF6"/>
</g>
<path d="M15.8076 25.0596H26.2461C26.8796 25.0596 27.3717 24.8773 27.7227 24.5127C28.0781 24.1481 28.2559 23.6149 28.2559 22.9131V15.7627C28.2559 15.0654 28.0713 14.5345 27.7021 14.1699C27.3376 13.8053 26.8021 13.623 26.0957 13.623H15.6641C15.026 13.623 14.5293 13.8053 14.1738 14.1699C13.8229 14.5345 13.6475 15.0654 13.6475 15.7627V22.9131C13.6475 23.6149 13.8298 24.1481 14.1943 24.5127C14.5635 24.8773 15.1012 25.0596 15.8076 25.0596ZM15.8281 23.7676C15.5365 23.7676 15.3132 23.6924 15.1582 23.542C15.0033 23.3916 14.9258 23.1615 14.9258 22.8516V15.8242C14.9258 15.5189 15.0033 15.291 15.1582 15.1406C15.3132 14.9902 15.5365 14.915 15.8281 14.915H26.082C26.3691 14.915 26.5902 14.9902 26.7451 15.1406C26.9001 15.291 26.9775 15.5212 26.9775 15.8311V22.8584C26.9775 23.1637 26.9001 23.3916 26.7451 23.542C26.5902 23.6924 26.3691 23.7676 26.082 23.7676H15.8281ZM20.9619 21.1152C21.208 21.1152 21.4473 21.0628 21.6797 20.958C21.9167 20.8486 22.1514 20.6777 22.3838 20.4453L27.5654 15.3525L26.752 14.5254L21.6865 19.5293C21.5498 19.6615 21.4245 19.7572 21.3105 19.8164C21.1966 19.8757 21.0804 19.9053 20.9619 19.9053C20.8434 19.9053 20.7249 19.8757 20.6064 19.8164C20.4925 19.7526 20.3695 19.6569 20.2373 19.5293L15.1582 14.5049L14.3311 15.332L19.5332 20.4453C19.7702 20.6777 20.0049 20.8486 20.2373 20.958C20.4743 21.0628 20.7158 21.1152 20.9619 21.1152ZM26.6562 24.0342L27.4766 23.207L23.375 19.1328L22.5479 19.9531L26.6562 24.0342ZM14.4404 23.207L15.2607 24.0342L19.3691 19.9531L18.5488 19.1328L14.4404 23.207Z" fill="white"/>
<defs>
<filter id="filter0_d_875_12230" x="0" y="0" width="42" height="42" filterUnits="userSpaceOnUse" color-interpolation-filters="sRGB">
<feFlood flood-opacity="0" result="BackgroundImageFix"/>
<feColorMatrix in="SourceAlpha" type="matrix" values="0 0 0 0 0 0 0 0 0 0 0 0 0 0 0 0 0 0 127 0" result="hardAlpha"/>
<feMorphology radius="5" operator="erode" in="SourceAlpha" result="effect1_dropShadow_875_12230"/>
<feOffset dy="2"/>
<feGaussianBlur stdDeviation="6"/>
<feComposite in2="hardAlpha" operator="out"/>
<feColorMatrix type="matrix" values="0 0 0 0 0.225 0 0 0 0 0.225 0 0 0 0 0.225 0 0 0 0.28 0"/>
<feBlend mode="normal" in2="BackgroundImageFix" result="effect1_dropShadow_875_12230"/>
<feBlend mode="normal" in="SourceGraphic" in2="effect1_dropShadow_875_12230" result="shape"/>
</filter>
</defs>
</svg>
