<svg width="42" height="42" viewBox="0 0 42 42" fill="none" xmlns="http://www.w3.org/2000/svg">
<g filter="url(#filter0_d_875_12207)">
<circle cx="21" cy="19" r="14" fill="#136EF6"/>
</g>
<path d="M22.9055 14.5384V18.9929H16.6501L16.2746 19.3684L15.9055 19.7374V14.5384H22.9055ZM23.5419 13.2656H15.2692C14.9192 13.2656 14.6328 13.552 14.6328 13.902V22.8111L17.1783 20.2656H23.5419C23.8919 20.2656 24.1783 19.9793 24.1783 19.6293V13.902C24.1783 13.552 23.8919 13.2656 23.5419 13.2656ZM26.7237 15.8111H25.451V21.5384H17.1783V22.8111C17.1783 23.1611 17.4646 23.4474 17.8146 23.4474H24.8146L27.3601 25.9929V16.4474C27.3601 16.0974 27.0737 15.8111 26.7237 15.8111Z" fill="white"/>
<defs>
<filter id="filter0_d_875_12207" x="0" y="0" width="42" height="42" filterUnits="userSpaceOnUse" color-interpolation-filters="sRGB">
<feFlood flood-opacity="0" result="BackgroundImageFix"/>
<feColorMatrix in="SourceAlpha" type="matrix" values="0 0 0 0 0 0 0 0 0 0 0 0 0 0 0 0 0 0 127 0" result="hardAlpha"/>
<feMorphology radius="5" operator="erode" in="SourceAlpha" result="effect1_dropShadow_875_12207"/>
<feOffset dy="2"/>
<feGaussianBlur stdDeviation="6"/>
<feComposite in2="hardAlpha" operator="out"/>
<feColorMatrix type="matrix" values="0 0 0 0 0.225 0 0 0 0 0.225 0 0 0 0 0.225 0 0 0 0.28 0"/>
<feBlend mode="normal" in2="BackgroundImageFix" result="effect1_dropShadow_875_12207"/>
<feBlend mode="normal" in="SourceGraphic" in2="effect1_dropShadow_875_12207" result="shape"/>
</filter>
</defs>
</svg>
