<svg width="42" height="42" viewBox="0 0 42 42" fill="none" xmlns="http://www.w3.org/2000/svg">
<g filter="url(#filter0_d_875_12219)">
<circle cx="21" cy="19" r="14" fill="#136EF6"/>
</g>
<path d="M16 24.8906C16 25.5243 16.2029 26.0329 16.6086 26.4164C17.0144 26.8055 17.5508 27 18.2178 27H24.2457C24.9016 27 25.4296 26.8055 25.8298 26.4164C26.2356 26.0329 26.4385 25.5215 26.4385 24.8823V12.1177C26.4385 11.4841 26.2356 10.9727 25.8298 10.5836C25.4296 10.1945 24.9016 10 24.2457 10H18.2178C17.5508 10 17.0144 10.1945 16.6086 10.5836C16.2029 10.9727 16 11.4841 16 12.1177V24.8906ZM17.4174 24.1736V12.8347H25.0211V24.1736H17.4174ZM21.2276 26.1746C21.0275 26.1746 20.8579 26.1051 20.719 25.9662C20.5856 25.8272 20.5189 25.6577 20.5189 25.4576C20.5189 25.263 20.5856 25.0963 20.719 24.9573C20.8579 24.8184 21.0275 24.7489 21.2276 24.7489C21.4221 24.7489 21.5889 24.8184 21.7278 24.9573C21.8668 25.0963 21.9362 25.263 21.9362 25.4576C21.9362 25.6577 21.8668 25.8272 21.7278 25.9662C21.5889 26.1051 21.4221 26.1746 21.2276 26.1746ZM19.6685 11.4674C19.6685 11.3673 19.699 11.2895 19.7602 11.2339C19.8213 11.1728 19.8964 11.1422 19.9853 11.1422H22.4615C22.5504 11.1422 22.6227 11.1728 22.6783 11.2339C22.7394 11.2895 22.77 11.3673 22.77 11.4674C22.77 11.5619 22.7394 11.6369 22.6783 11.6925C22.6227 11.7481 22.5504 11.7759 22.4615 11.7759H19.9853C19.8964 11.7759 19.8213 11.7481 19.7602 11.6925C19.699 11.6369 19.6685 11.5619 19.6685 11.4674Z" fill="white"/>
<defs>
<filter id="filter0_d_875_12219" x="0" y="0" width="42" height="42" filterUnits="userSpaceOnUse" color-interpolation-filters="sRGB">
<feFlood flood-opacity="0" result="BackgroundImageFix"/>
<feColorMatrix in="SourceAlpha" type="matrix" values="0 0 0 0 0 0 0 0 0 0 0 0 0 0 0 0 0 0 127 0" result="hardAlpha"/>
<feMorphology radius="5" operator="erode" in="SourceAlpha" result="effect1_dropShadow_875_12219"/>
<feOffset dy="2"/>
<feGaussianBlur stdDeviation="6"/>
<feComposite in2="hardAlpha" operator="out"/>
<feColorMatrix type="matrix" values="0 0 0 0 0.225 0 0 0 0 0.225 0 0 0 0 0.225 0 0 0 0.28 0"/>
<feBlend mode="normal" in2="BackgroundImageFix" result="effect1_dropShadow_875_12219"/>
<feBlend mode="normal" in="SourceGraphic" in2="effect1_dropShadow_875_12219" result="shape"/>
</filter>
</defs>
</svg>
